<svg xmlns="http://www.w3.org/2000/svg" width="24.767" height="67.289" viewBox="0 0 24.767 67.289"><defs><style>.a{fill:#0e161b;}</style></defs><path class="a" d="M53.141,34.718c-.311-.164-.642-.433-.9-.6a1.708,1.708,0,0,1-.9-1.492,1.939,1.939,0,0,0,1.044-1.79,1.641,1.641,0,0,0,0-.448h.149a1.881,1.881,0,0,0,1.343-.6,1.528,1.528,0,0,0,.448-1.194l-.3-5.52a1.666,1.666,0,0,0-1.641-1.641h0c-.016,0-.954.041-2.238,0a37.568,37.568,0,0,1-.6-7.609c0-3.107-1.925-5.52-4.476-5.52s-4.476,2.414-4.476,5.52a37.445,37.445,0,0,1-.6,7.609c-1.218.041-2.081,0-2.089,0a1.761,1.761,0,0,0-1.79,1.641l-.3,5.52a1.5,1.5,0,0,0,.448,1.194,2.2,2.2,0,0,0,1.492.6h0a1.64,1.64,0,0,0,0,.448,1.939,1.939,0,0,0,1.044,1.79,1.715,1.715,0,0,1-.9,1.492c-.253.164-.585.433-.9.6-1.733.9-4.327,2.166-4.327,7.162V71.72A3.941,3.941,0,0,0,34.938,75.3a2.741,2.741,0,0,0,1.194.3h17.9a3.374,3.374,0,0,0,1.343-.3,3.817,3.817,0,0,0,2.089-3.581V41.88C57.459,36.893,54.874,35.618,53.141,34.718Zm-.746,1.343c1.627.842,3.432,1.829,3.432,5.819v3.73c-1.431.065-4.574.258-8.057.3V32.779h1.94a3.55,3.55,0,0,0,1.641,2.835C51.669,35.81,52.043,35.881,52.395,36.061Zm-5.968-3.282v13.13H45.382c-.58,0-1.053.008-1.641,0V32.779ZM42.249,13.83c0-2.2,1.2-3.879,2.835-3.879s2.835,1.672,2.835,3.879a37.883,37.883,0,0,0,.448,7.46c-1.1-.025-2.252,0-3.282,0-1.063,0-2.32-.025-3.432,0A34.33,34.33,0,0,0,42.249,13.83ZM37.624,28.6l.149-5.371a.725.725,0,0,1,.149,0c.041,0,4.21-.149,7.162-.149s7.088.149,7.162.149.149.033.149,0l.149,5.371c-.008.008.065.149,0,.149H37.624C37.558,28.75,37.624,28.6,37.624,28.6Zm13.428,1.79a.567.567,0,0,1,.149.448.674.674,0,0,1-.6.746H39.563a.674.674,0,0,1-.6-.746.539.539,0,0,1,.149-.448Zm-13.279,5.67c.352-.188.734-.251,1.044-.448a3.54,3.54,0,0,0,1.641-2.835H42.4v13.13c-3.671-.057-6.953-.249-8.057-.3V41.88C34.35,37.89,36.146,36.9,37.773,36.061Zm16.86,37.748a1.461,1.461,0,0,1-.6.149h-17.9a1.461,1.461,0,0,1-.6-.149,2.252,2.252,0,0,1-1.194-2.089V46.8c1.472.065,6.4.3,11.041.3,4.243,0,8.653-.217,10.444-.3V71.72A2.29,2.29,0,0,1,54.633,73.809Z" transform="translate(-32.7 -8.31)"/></svg>