<svg xmlns="http://www.w3.org/2000/svg" xmlns:xlink="http://www.w3.org/1999/xlink" version="1.0" x="0px" y="0px" viewBox="0 0 100 125" enable-background="new 0 0 100 100" xml:space="preserve"><g><path fill="#000000" d="M57.69,40.55c-0.38-0.2-0.74-0.38-1.05-0.58c-0.97-0.63-1.15-1.46-1.16-1.93c0.8-0.37,1.36-1.17,1.36-2.11   c0-0.2-0.03-0.38-0.08-0.57h0.48c0.66,0,1.28-0.27,1.72-0.73c0.4-0.43,0.6-0.97,0.56-1.5l-0.32-11.3l-0.16-0.25   c-0.05-0.08-5.21-8.23-6.29-11.39c-0.35-1.03-1.35-1.73-2.49-1.73h-4.85c-1.14,0-2.14,0.69-2.49,1.73   c-1.08,3.16-6.24,11.31-6.29,11.39l-0.16,0.25l-0.31,11.26c-0.04,0.57,0.16,1.12,0.56,1.54c0.43,0.46,1.06,0.73,1.72,0.73h0.48   c-0.05,0.18-0.08,0.37-0.08,0.57c0,0.94,0.56,1.74,1.36,2.11c-0.01,0.45-0.18,1.29-1.16,1.93c-0.31,0.2-0.67,0.38-1.05,0.58   c-2.12,1.1-5.32,2.76-5.32,8.86v36.48c0,1.9,1.05,3.59,2.67,4.31c0.52,0.23,1.05,0.34,1.59,0.34h10.9h10.9   c0.54,0,1.08-0.12,1.59-0.34c1.62-0.72,2.67-2.41,2.67-4.31V49.4C63.01,43.3,59.81,41.64,57.69,40.55z M38.31,33.19l0.3-10.71   c0.91-1.44,5.29-8.49,6.35-11.6c0.06-0.16,0.25-0.28,0.47-0.28h4.85c0.22,0,0.42,0.12,0.47,0.28c1.06,3.11,5.44,10.16,6.35,11.6   l0.31,10.69c-0.01,0.01-0.06,0.06-0.16,0.06H38.45C38.36,33.23,38.31,33.19,38.31,33.19z M55.12,35.36   c0.14,0.15,0.23,0.35,0.23,0.57c0,0.46-0.37,0.83-0.83,0.83H41.18c-0.46,0-0.83-0.37-0.83-0.83c0-0.22,0.09-0.42,0.23-0.57H55.12z    M48.29,54.45c-0.96,0-1.94-0.01-2.9-0.02V39.66h4.94v14.78C49.65,54.44,48.97,54.45,48.29,54.45z M38.93,42.32   c0.43-0.23,0.84-0.44,1.22-0.68c1.6-1.04,1.99-2.46,2.05-3.39h1.41V54.4c-4.08-0.08-7.69-0.23-8.93-0.28V49.4   C34.69,44.52,36.94,43.35,38.93,42.32z M59.53,88.37c-0.26,0.11-0.52,0.17-0.78,0.17h-10.9h-10.9c-0.26,0-0.52-0.06-0.78-0.17   c-0.89-0.39-1.48-1.39-1.48-2.48V55.62c1.8,0.08,7.92,0.33,13.6,0.33c5.19,0,10.54-0.21,12.73-0.31v30.24   C61.01,86.98,60.42,87.97,59.53,88.37z M61.01,54.14c-1.61,0.07-5.07,0.21-8.92,0.27V38.25h1.4c0.06,0.93,0.45,2.34,2.05,3.39   c0.38,0.24,0.79,0.46,1.22,0.68c1.99,1.03,4.24,2.2,4.24,7.08V54.14z"/><path fill="#000000" d="M40.45,22.9c-0.33,0-0.6,0.27-0.6,0.6v8.7c0,0.33,0.27,0.6,0.6,0.6s0.6-0.27,0.6-0.6v-8.7   C41.05,23.17,40.79,22.9,40.45,22.9z"/><path fill="#000000" d="M43.45,22.9c-0.33,0-0.6,0.27-0.6,0.6v8.7c0,0.33,0.27,0.6,0.6,0.6s0.6-0.27,0.6-0.6v-8.7   C44.05,23.17,43.79,22.9,43.45,22.9z"/><path fill="#000000" d="M46.45,22.9c-0.33,0-0.6,0.27-0.6,0.6v8.7c0,0.33,0.27,0.6,0.6,0.6s0.6-0.27,0.6-0.6v-8.7   C47.05,23.17,46.79,22.9,46.45,22.9z"/><path fill="#000000" d="M49.45,22.9c-0.33,0-0.6,0.27-0.6,0.6v8.7c0,0.33,0.27,0.6,0.6,0.6s0.6-0.27,0.6-0.6v-8.7   C50.05,23.17,49.79,22.9,49.45,22.9z"/><path fill="#000000" d="M52.45,22.9c-0.33,0-0.6,0.27-0.6,0.6v8.7c0,0.33,0.27,0.6,0.6,0.6s0.6-0.27,0.6-0.6v-8.7   C53.05,23.17,52.79,22.9,52.45,22.9z"/><path fill="#000000" d="M55.45,22.9c-0.33,0-0.6,0.27-0.6,0.6v8.7c0,0.33,0.27,0.6,0.6,0.6s0.6-0.27,0.6-0.6v-8.7   C56.05,23.17,55.79,22.9,55.45,22.9z"/></g><text x="0" y="115" fill="#000000" font-size="5px" font-weight="bold" font-family="'Helvetica Neue', Helvetica, Arial-Unicode, Arial, Sans-serif">Created by Ben Marsh</text><text x="0" y="120" fill="#000000" font-size="5px" font-weight="bold" font-family="'Helvetica Neue', Helvetica, Arial-Unicode, Arial, Sans-serif">from the Noun Project</text></svg>