<svg xmlns="http://www.w3.org/2000/svg" width="146.364" height="396.224" viewBox="0 0 146.364 396.224"><defs><style>.a{fill:#dea51e;}</style></defs><g transform="translate(-32.66 -8.46)"><g transform="translate(32.66 8.46)"><path class="a" d="M153.487,163.368c-1.834-.965-3.572-1.834-5.069-2.8-4.682-3.041-5.551-7.048-5.6-9.317a11.22,11.22,0,0,0,6.565-10.186,10.518,10.518,0,0,0-.386-2.752h2.317a11.489,11.489,0,0,0,8.3-3.524,9.623,9.623,0,0,0,2.7-7.241L160.776,73,160,71.794c-.241-.386-25.15-39.729-30.364-54.983A12.58,12.58,0,0,0,117.62,8.46H94.208a12.516,12.516,0,0,0-12.02,8.351c-5.213,15.254-30.122,54.6-30.364,54.983L51.052,73l-1.545,54.355a9.717,9.717,0,0,0,2.7,7.434,11.408,11.408,0,0,0,8.3,3.524h2.317a10.239,10.239,0,0,0-.386,2.752,11.221,11.221,0,0,0,6.565,10.186c-.048,2.269-.869,6.227-5.6,9.317-1.5.965-3.234,1.834-5.069,2.8-10.234,5.31-25.681,13.323-25.681,42.77v176.1c0,9.172,5.069,17.33,12.889,20.806a18.608,18.608,0,0,0,7.675,1.641H158.459a19.413,19.413,0,0,0,7.675-1.641c7.82-3.476,12.889-11.634,12.889-20.806V206.089C179.168,176.643,163.721,168.629,153.487,163.368ZM59.934,127.839l1.448-51.7c4.393-6.951,25.536-40.984,30.653-56A2.384,2.384,0,0,1,94.3,18.79h23.412a2.335,2.335,0,0,1,2.269,1.352c5.117,15.013,26.26,49.045,30.653,56l1.5,51.6a1.114,1.114,0,0,1-.772.241H60.61A.957.957,0,0,1,59.934,127.839Zm81.147,10.475a3.995,3.995,0,0,1-2.9,6.758h-64.4a3.995,3.995,0,0,1-2.9-6.758ZM117.91,233.122v74.244l-3.669,18.971V347.48H97.828V326.337L94.16,307.366V159.071h23.847l-.1,74.051Zm-54.983-61.21c2.124-1.11,4.1-2.124,5.889-3.283a20.664,20.664,0,0,0,9.9-16.365h6.806v80.712c-19.6-.386-36.929-1.11-43.108-1.352V206.089C42.459,182.532,53.321,176.884,62.927,171.912Zm106.586,59.714c-6.179.29-23.461,1.014-43.059,1.352V152.265h6.758c.29,4.489,2.172,11.3,9.9,16.365,1.834,1.159,3.814,2.221,5.889,3.283,9.606,4.972,20.468,10.62,20.468,34.177v25.536Z" transform="translate(-32.66 -8.46)"/><path class="a" d="M42.746,22.9a2.9,2.9,0,0,0-2.9,2.9v42a2.9,2.9,0,1,0,5.793,0v-42A2.9,2.9,0,0,0,42.746,22.9Z" transform="translate(-5.142 46.806)"/><path class="a" d="M45.746,22.9a2.9,2.9,0,0,0-2.9,2.9v42a2.9,2.9,0,1,0,5.793,0v-42A2.9,2.9,0,0,0,45.746,22.9Z" transform="translate(6.34 46.806)"/><path class="a" d="M48.746,22.9a2.9,2.9,0,0,0-2.9,2.9v42a2.9,2.9,0,1,0,5.793,0v-42A2.9,2.9,0,0,0,48.746,22.9Z" transform="translate(17.822 46.806)"/><path class="a" d="M51.746,22.9a2.9,2.9,0,0,0-2.9,2.9v42a2.9,2.9,0,1,0,5.793,0v-42A2.9,2.9,0,0,0,51.746,22.9Z" transform="translate(29.304 46.806)"/><path class="a" d="M54.746,22.9a2.9,2.9,0,0,0-2.9,2.9v42a2.9,2.9,0,1,0,5.793,0v-42A2.9,2.9,0,0,0,54.746,22.9Z" transform="translate(40.786 46.806)"/><path class="a" d="M57.746,22.9a2.9,2.9,0,0,0-2.9,2.9v42a2.9,2.9,0,1,0,5.793,0v-42A2.9,2.9,0,0,0,57.746,22.9Z" transform="translate(52.268 46.806)"/></g></g></svg>