<svg xmlns="http://www.w3.org/2000/svg" width="815.736" height="390" viewBox="0 0 815.736 390">
  <defs>
    <style>
      .cls-1 {
        fill: #e5b031;
        opacity: 0.35;
      }

      .cls-2 {
        fill: #dea51e;
      }

      .cls-3 {
        fill: none;
        stroke: #8b6203;
        stroke-width: 2px;
        opacity: 0.24;
      }

      .cls-4 {
        fill: #604300;
        opacity: 0.2;
      }

      .cls-5, .cls-6 {
        stroke: none;
      }

      .cls-6 {
        fill: #604300;
      }
    </style>
  </defs>
  <g id="Groupe_25" data-name="Groupe 25" transform="translate(1.591 -690)">
    <g id="Groupe_17" data-name="Groupe 17">
      <path id="Tracé_20" data-name="Tracé 20" class="cls-1" d="M2245,7468.4h813v-289s-205.945-69-411-69-402,69-402,69Z" transform="translate(-2245 -6420.397)"/>
      <path id="Tracé_19" data-name="Tracé 19" class="cls-2" d="M2245,7468.4h813v-289s-205.945-69-411-69-402,69-402,69Z" transform="translate(-2245 -6388.397)"/>
    </g>
    <line id="Ligne_4" data-name="Ligne 4" class="cls-3" y1="213" transform="translate(44.5 777.5)"/>
    <line id="Ligne_5" data-name="Ligne 5" class="cls-3" y1="210" transform="translate(776.5 780.5)"/>
    <g id="Rectangle_6" data-name="Rectangle 6" class="cls-4" transform="translate(-1.591 989.93)">
      <path class="cls-5" d="M44.866,0H779.428l36.308,89.644H0Z"/>
      <path class="cls-6" d="M 811.5732421875 87.240966796875 L 777.3345336914063 1.958500146865845 L 46.77273178100586 1.958500146865845 L 4.391993999481201 87.240966796875 L 811.5732421875 87.240966796875 M 815.7357788085938 89.64401245117188 L 2.033099008258432e-05 89.64401245117188 L 44.86643218994141 -1.465586865379009e-05 L 779.4277954101563 -1.465586865379009e-05 L 815.7357788085938 89.64401245117188 Z"/>
    </g>
  </g>
</svg>
