<?xml version="1.0" encoding="utf-8"?>
<!-- Generator: Adobe Illustrator 24.3.0, SVG Export Plug-In . SVG Version: 6.00 Build 0)  -->
<svg version="1.1" xmlns="http://www.w3.org/2000/svg" xmlns:xlink="http://www.w3.org/1999/xlink" x="0px" y="0px"
	 viewBox="0 0 992 992" style="enable-background:new 0 0 992 992;" xml:space="preserve">
<style type="text/css">
	.st0{fill:#FFFFFF;}
	.st1{fill-rule:evenodd;clip-rule:evenodd;fill:#FFFFFF;}
	.st2{fill-rule:evenodd;clip-rule:evenodd;fill:#808080;}
	.st3{fill-rule:evenodd;clip-rule:evenodd;fill:#B3B3B3;}
	.st4{fill-rule:evenodd;clip-rule:evenodd;fill:#666666;stroke:#666666;stroke-miterlimit:10;}
	.st5{fill-rule:evenodd;clip-rule:evenodd;}
</style>
<g id="Guides_For_Artboard">
</g>
<g id="Layer_1">
	<g>
		<path class="st0" d="M504.33,128.19c1.21,0,1.92,0.08,2.31,0.15c0.04,0.19,0.08,0.45,0.12,0.79c0.01,0.07,0.02,0.15,0.03,0.22
			c0.57,4.22,1.34,10.07,2.07,15.53c2.56,19.31,4.58,34.56,7.29,50.47c1.59,9.31,7.74,10.38,12.23,10.38c0.27,0,0.55,0,0.85,0
			l0.01,0c0.02,0,0.04,0,0.06,0c0.63-0.01,0.94-0.01,1.21-0.02c0.12,0,0.3,0,0.61,0h34.2c0.86,0,1.45,0.46,1.73,0.73
			c0.01,0.01,0.02,0.02,0.03,0.03c0.27,0.28,0.71,0.86,0.71,1.7v5.71c0,4.42,3.58,8,8,8h0.07c0.68,0,1.16,0.32,1.43,0.56
			c0.04,0.05,0.09,0.1,0.13,0.15c0.26,0.29,0.58,0.77,0.58,1.44c0,0.75-0.4,1.26-0.64,1.5c-0.05,0.05-0.09,0.1-0.14,0.14
			c-0.14,0.11-0.28,0.21-0.44,0.29c-2.67,1.3-4.39,3.97-4.49,6.93c-0.1,2.96,1.46,5.74,4.03,7.21c0.11,0.06,0.21,0.13,0.31,0.21
			c0.28,0.22,0.75,0.7,0.85,1.46l0,0.01c0.01,0.05,0.01,0.11,0.02,0.16c0.03,0.61-0.22,1.07-0.44,1.35
			c-0.23,0.29-0.64,0.65-1.3,0.74l-0.01,0c-0.09,0.01-0.18,0.02-0.27,0.04l-0.55,0.06c-4.07,0.44-7.15,3.87-7.15,7.95v13.84
			c0,4.42,3.58,8,8,8h0.07c0.69,0,1.17,0.32,1.42,0.55c0.05,0.05,0.09,0.1,0.14,0.16c0.27,0.29,0.58,0.77,0.58,1.44
			c0,0.75-0.4,1.26-0.65,1.5c-0.05,0.05-0.09,0.09-0.14,0.14c-0.27,0.23-0.73,0.5-1.36,0.5h-0.07c-4.42,0-8,3.58-8,8v6.53
			c0,4.42,3.58,8,8,8h5.3v12.94h-5.3c-4.42,0-8,3.58-8,8v11.67c-0.01,0.16-0.01,0.32-0.02,0.48l0,1.81l0,0.07
			c-0.01,4.94-0.02,6.49,0.93,8.47c0.33,0.69,0.75,1.33,1.25,1.9c1.06,1.21,2.69,2.33,5.2,2.75c0.24,0.04,0.41,0.07,0.8,0.2
			c0.06,0.02,0.11,0.04,0.17,0.05c0.05,0.02,0.1,0.04,0.16,0.06c4.28,1.47,8.1,4.25,10.74,7.84c2.69,3.64,4.11,7.95,4.11,12.44
			v499.89c0,5.7-2.24,11.08-6.3,15.14c-4.06,4.07-9.44,6.3-15.14,6.3h-64.07h-2.72h-2.72h-64.08c-5.7,0-11.08-2.24-15.14-6.3
			c-4.07-4.06-6.3-9.44-6.3-15.14V369.37c0-4.49,1.42-8.79,4.11-12.44c2.69-3.65,6.58-6.46,10.99-7.92
			c0.04-0.01,0.07-0.03,0.11-0.04c0.03-0.01,0.07-0.02,0.1-0.03c0.29-0.09,0.41-0.11,0.64-0.15c3.78-0.61,5.59-2.83,6.43-4.57
			c0.99-2.03,0.98-3.56,0.96-8.61l0-1.81c0-0.17-0.01-0.34-0.02-0.51v-11.65c0-4.42-3.58-8-8-8h-5.3v-12.94h5.3c4.42,0,8-3.58,8-8
			v-6.53c0-4.42-3.58-8-8-8h-0.07c-0.74,0-1.26-0.4-1.5-0.64c-0.01-0.01-0.02-0.02-0.03-0.03c-0.24-0.25-0.61-0.75-0.61-1.47
			c0-0.76,0.4-1.27,0.63-1.51c0.22-0.22,0.47-0.39,0.75-0.49c3-1.16,5.01-3.99,5.11-7.2c0.1-3.21-1.72-6.17-4.63-7.52
			c-0.18-0.08-0.35-0.19-0.49-0.3c-0.27-0.22-0.75-0.69-0.85-1.45l0-0.01c-0.01-0.06-0.01-0.11-0.02-0.17
			c-0.03-0.61,0.22-1.07,0.43-1.34c0.23-0.3,0.65-0.67,1.28-0.75l0.05-0.01c0.08-0.01,0.16-0.02,0.23-0.03l0.57-0.06
			c4.07-0.43,7.15-3.87,7.15-7.95v-13.09c0-4.42-3.58-8-8-8h-0.07c-0.73,0-1.23-0.38-1.48-0.62c-0.01-0.02-0.03-0.03-0.04-0.04
			c-0.24-0.25-0.62-0.75-0.62-1.47c0-0.76,0.4-1.27,0.63-1.51c0.24-0.24,0.75-0.63,1.51-0.63h0.07c4.42,0,8-3.58,8-8v-5.71
			c0-0.86,0.46-1.45,0.73-1.72c0.01-0.01,0.04-0.04,0.05-0.05c0.03-0.03,0.07-0.07,0.1-0.1c0.31-0.27,0.85-0.59,1.59-0.59h33.08
			c0.31,0,0.5,0,0.62,0c0.28,0.02,0.61,0.02,1.2,0.02c0.01,0,0.02,0,0.03,0c0.37,0,0.72,0.01,1.05,0.01c2.82,0,11.41,0,13.18-10.38
			c2.7-15.84,4.73-31.12,7.29-50.47c0.74-5.56,1.53-11.52,2.09-15.75c0.05-0.34,0.09-0.6,0.12-0.79c0.39-0.07,1.1-0.15,2.31-0.15
			h1.47H504.33 M504.33,120.19h-1.46h-1.47c-3.58,0-5.79,0.54-7.46,1.83c-2,1.56-2.56,3.42-2.91,6.05
			c-0.57,4.24-1.36,10.2-2.1,15.77c-2.61,19.66-4.57,34.48-7.25,50.17c-0.59,3.44-1.98,3.73-5.3,3.73c-0.32,0-0.65,0-1-0.01h-0.02
			c-1.59-0.01-0.15-0.03-1.88-0.03h-33.08c-2.88,0-5.5,1.18-7.4,3.07l0.01,0.01l-0.01,0.01c-1.89,1.9-3.07,4.51-3.07,7.38v5.71
			h-0.07c-2.79,0-5.33,1.14-7.17,2.98c-1.83,1.84-2.98,4.37-2.98,7.17c0,2.77,1.14,5.3,2.97,7.14l0.01,0.01l0.01,0.01l0.01,0.01
			c1.84,1.84,4.38,2.98,7.15,2.98h0.07v13.09l-0.59,0.06l-0.21,0.02l-0.12,0.01l0,0.01l-0.05,0.01c-2.7,0.34-5.02,1.74-6.59,3.72
			c-1.53,1.93-2.35,4.42-2.13,7.04c0,0.09,0.01,0.17,0.02,0.26l0.01,0.12l0.01,0l0.01,0.05c0.35,2.75,1.79,5.13,3.83,6.74
			c0.64,0.51,1.35,0.94,2.09,1.29c-1.33,0.51-2.53,1.3-3.53,2.3c-1.83,1.83-2.98,4.37-2.98,7.17c0,2.77,1.14,5.3,2.97,7.14
			l0.01,0.01l0.01,0.01l0.01,0.01c1.84,1.84,4.38,2.98,7.15,2.98h0.07v6.53h-6.13c-1.96,0-3.75,0.81-5.05,2.1l-0.02,0.02
			c-1.3,1.3-2.1,3.08-2.1,5.05v14.6c0,1.96,0.81,3.75,2.1,5.05l0.02,0.02c1.3,1.3,3.09,2.1,5.05,2.1h6.13v12.17h0.02l0,1.81
			c0.01,3.11,0.02,4.74-0.16,5.09c-0.1,0.2-0.68,0.09-2.23,0.57c-0.1,0.02-0.2,0.05-0.3,0.08l-0.09,0.03l0,0.01l-0.02,0.01
			c-6.03,2-11.23,5.8-14.88,10.76c-3.56,4.83-5.66,10.75-5.66,17.18v499.89c0,8.1,3.31,15.46,8.65,20.8
			c5.33,5.33,12.7,8.65,20.8,8.65h64.08h2.72h2.72h64.07c8.1,0,15.46-3.31,20.8-8.65c5.33-5.33,8.65-12.7,8.65-20.8V369.37
			c0-6.43-2.11-12.35-5.66-17.18c-3.59-4.88-8.68-8.64-14.58-10.66c-0.1-0.04-0.21-0.08-0.31-0.12l-0.09-0.03l0,0.01
			c-1.77-0.58-2.41-0.46-2.51-0.66l-0.01,0.01l0-0.01c-0.17-0.35-0.17-1.99-0.16-5.09l0-1.81h0.02v-12.17h6.13
			c1.96,0,3.75-0.81,5.05-2.1l0.02-0.02c1.3-1.3,2.1-3.09,2.1-5.05v-14.6c0-1.97-0.81-3.75-2.1-5.05l-0.02-0.02
			c-1.3-1.3-3.08-2.1-5.05-2.1h-6.13v-6.53h0.07c2.79,0,5.33-1.14,7.17-2.98l-0.01-0.01c1.84-1.84,2.99-4.38,2.99-7.16
			c0-2.63-1.03-5.05-2.7-6.86c-0.09-0.1-0.18-0.2-0.27-0.3c-1.84-1.84-4.37-2.98-7.17-2.98h-0.07v-13.84l0.59-0.06l0.21-0.02
			l0.12-0.01l0-0.01l0.05-0.01c2.7-0.34,5.02-1.74,6.59-3.72c1.53-1.93,2.34-4.42,2.13-7.04c0-0.09-0.01-0.17-0.02-0.26l-0.01-0.12
			l-0.01,0l-0.01-0.05c-0.35-2.75-1.79-5.13-3.83-6.74c-0.41-0.33-0.85-0.62-1.31-0.88c1.02-0.5,1.95-1.16,2.74-1.95l-0.01-0.01
			c1.84-1.84,2.99-4.38,2.99-7.16c0-2.63-1.03-5.05-2.7-6.86c-0.09-0.1-0.18-0.2-0.27-0.3c-1.84-1.84-4.37-2.98-7.17-2.98h-0.07
			v-5.71c0-2.87-1.18-5.48-3.07-7.38l-0.02-0.02c-1.9-1.89-4.51-3.07-7.38-3.07h-34.2c-1.66,0-0.31,0.01-1.88,0.03h-0.02
			c-0.3,0-0.58,0-0.84,0c-2.91,0-3.75-0.28-4.34-3.73c-2.67-15.69-4.64-30.51-7.25-50.17c-0.74-5.56-1.53-11.53-2.1-15.77h0
			c-0.35-2.63-0.91-4.49-2.91-6.05C510.13,120.72,507.91,120.19,504.33,120.19L504.33,120.19z"/>
	</g>
	<path class="st1" d="M415.26,289.63h175.22c2.5,0,4.76,1.02,6.4,2.66c1.64,1.64,2.66,3.91,2.66,6.4v26.13
		c0,2.49-1.02,4.76-2.66,6.4h-0.02c-1.64,1.64-3.9,2.66-6.39,2.66H415.26c-2.49,0-4.75-1.02-6.39-2.66l-0.02-0.02
		c-1.64-1.64-2.66-3.9-2.66-6.39V298.7c0-2.49,1.02-4.75,2.66-6.39v-0.02C410.5,290.65,412.77,289.63,415.26,289.63z"/>
	<path class="st2" d="M590.48,297.93H415.26c-0.21,0-0.4,0.09-0.54,0.23l-0.01-0.01c-0.14,0.14-0.22,0.34-0.22,0.55v26.13
		c0,0.21,0.08,0.4,0.22,0.54l0.01,0.01c0.14,0.13,0.33,0.22,0.54,0.22h175.22c0.21,0,0.41-0.09,0.55-0.22l-0.01-0.01
		c0.14-0.14,0.23-0.33,0.23-0.54V298.7c0-0.21-0.09-0.4-0.23-0.54C590.88,298.01,590.69,297.93,590.48,297.93z"/>
	<path class="st3" d="M574.53,297.93c0.02,0.25,0.03,0.51,0.03,0.77v26.13c0,0.26-0.01,0.52-0.03,0.77H415.26
		c-0.21,0-0.4-0.08-0.54-0.22l-0.01-0.01c-0.13-0.14-0.22-0.33-0.22-0.54V298.7c0-0.21,0.09-0.41,0.22-0.55l0.01,0.01
		c0.14-0.14,0.33-0.23,0.54-0.23H574.53z"/>
	<g>
		<path class="st0" d="M507.36,119.95c0.34,0,0.64,0,0.88,0.01c0.13,0.22,0.26,0.44,0.38,0.65l0.03,0.05
			c0.21,0.36,0.46,0.78,0.75,1.25c4.88,7.9,11.01,16.43,18.24,25.34c7.25,8.93,15.43,18.07,24.31,27.14
			c10.85,11.09,19.98,18.52,30.55,27.12l0.04,0.03c1.57,1.28,3.13,2.55,5.59,4.56l2.35,1.93c0.43,0.38,0.77,0.7,0.87,0.87
			c0,0,0.19,0.43,0.19,1.88v67.32c0,0.47-0.2,0.84-0.38,1.07l-0.04,0.03l-0.2,0.22c-0.23,0.2-0.62,0.45-1.16,0.45H415.98
			c-0.57,0-0.98-0.29-1.2-0.49l-0.06-0.06c-0.2-0.21-0.52-0.63-0.52-1.23v-67.32c0-1.44,0.19-1.87,0.19-1.87
			c0.09-0.16,0.41-0.47,0.82-0.83l2.41-1.97c2.48-2.03,4.04-3.3,5.63-4.6c10.57-8.61,19.7-16.04,30.55-27.12
			c8.88-9.07,17.06-18.21,24.31-27.14c7.23-8.92,13.37-17.45,18.24-25.34c0.29-0.47,0.54-0.89,0.76-1.26l0.03-0.06
			c0.12-0.2,0.25-0.42,0.37-0.64c0.25-0.01,0.54-0.01,0.88-0.01H507.36 M507.36,111.95h-8.97c-5.46,0-5.84,0.65-8.16,4.6
			c-0.2,0.34-0.43,0.73-0.7,1.16c-4.92,7.98-10.97,16.27-17.64,24.5c-7.41,9.14-15.58,18.18-23.81,26.59
			c-10.53,10.76-19.46,18.03-29.88,26.51c-1.59,1.3-3.16,2.57-5.65,4.61l0,0l-0.74,0.6l0,0c-3.58,2.89-5.61,4.53-5.61,10.26v67.32
			c0,2.67,1.1,5.12,2.87,6.89l0.01,0.01l0.01,0.01c1.78,1.77,4.22,2.87,6.89,2.87h173.78c2.67,0,5.11-1.1,6.89-2.87l0.01-0.01
			l0.01-0.01c1.77-1.78,2.87-4.22,2.87-6.89v-67.32c0-5.73-2.03-7.37-5.61-10.26l0,0l-0.74-0.6l0,0c-2.49-2.04-4.06-3.32-5.65-4.61
			c-10.43-8.49-19.35-15.75-29.88-26.51c-8.23-8.41-16.4-17.45-23.81-26.59c-6.67-8.23-12.72-16.52-17.64-24.5
			c-0.27-0.43-0.49-0.82-0.7-1.16C513.2,112.6,512.82,111.95,507.36,111.95L507.36,111.95z"/>
	</g>
	<path class="st4" d="M508.39,120.73c-0.24-0.42-0.28-0.48-1.03-0.48h-8.97c-0.75,0-0.79,0.07-1.03,0.48
		c-0.22,0.38-0.48,0.82-0.79,1.33c-5.13,8.32-11.39,16.91-18.26,25.38c-7.59,9.36-15.94,18.59-24.33,27.17
		c-10.83,11.07-19.93,18.47-30.56,27.13c-2.07,1.68-4.25,3.46-5.64,4.6l-0.02,0.02l-0.75,0.61l-0.02,0.02
		c-1.59,1.29-2.5,2.02-2.5,3.82v67.32c0,0.42,0.16,0.79,0.42,1.05l0.02,0.02c0.26,0.26,0.63,0.42,1.05,0.42h173.78
		c0.41,0,0.79-0.16,1.05-0.42l0.02-0.02c0.26-0.26,0.42-0.63,0.42-1.05v-67.32c0-1.8-0.9-2.53-2.5-3.82l-0.02-0.02l-0.75-0.61
		l-0.02-0.02c-1.38-1.13-3.57-2.91-5.64-4.6c-10.63-8.65-19.73-16.06-30.56-27.13c-8.4-8.58-16.74-17.81-24.33-27.17
		c-6.87-8.47-13.13-17.06-18.26-25.38C508.87,121.55,508.61,121.11,508.39,120.73z"/>
	<g>
		<rect x="417.28" y="209.89" class="st5" width="7.8" height="66.12"/>
		<rect x="428.17" y="209.89" class="st5" width="7.8" height="66.12"/>
		<rect x="439.06" y="209.89" class="st5" width="7.8" height="66.12"/>
		<rect x="449.96" y="209.89" class="st5" width="7.8" height="66.12"/>
		<rect x="460.85" y="209.89" class="st5" width="7.8" height="66.12"/>
		<rect x="471.74" y="209.89" class="st5" width="7.8" height="66.12"/>
		<rect x="482.63" y="209.89" class="st5" width="7.8" height="66.12"/>
		<rect x="493.52" y="209.89" class="st5" width="7.8" height="66.12"/>
		<rect x="504.41" y="209.89" class="st5" width="7.8" height="66.12"/>
		<rect x="515.31" y="209.89" class="st5" width="7.8" height="66.12"/>
		<rect x="526.2" y="209.89" class="st5" width="7.8" height="66.12"/>
		<rect x="537.09" y="209.89" class="st5" width="7.8" height="66.12"/>
		<rect x="547.98" y="209.89" class="st5" width="7.8" height="66.12"/>
		<rect x="558.87" y="209.89" class="st5" width="7.8" height="66.12"/>
		<rect x="569.76" y="209.89" class="st5" width="7.8" height="66.12"/>
		<rect x="580.65" y="209.89" class="st5" width="7.8" height="66.12"/>
	</g>
	<path class="st2" d="M590.82,370.58h-175.9v498.68c0,5.81,2.38,11.1,6.22,14.93c3.83,3.83,9.12,6.22,14.94,6.22h64.08h2.72h2.72
		h64.07c5.81,0,11.1-2.38,14.94-6.22c3.83-3.83,6.22-9.12,6.22-14.93V370.58z"/>
</g>
</svg>
